<mxfile host="app.diagrams.net" modified="2024-07-11T02:19:21.730Z" agent="Mozilla/5.0 (Windows NT 10.0; Win64; x64) AppleWebKit/537.36 (KHTML, like Gecko) Chrome/116.0.0.0 Safari/537.36" version="24.6.4" etag="tR9igz9L41lPy5K_C4F_" type="github">
  <diagram name="第 1 页" id="ilnAmgvcrfnJZnjW1t-3">
    <mxGraphModel>
      <root>
        <mxCell id="0" />
        <mxCell id="1" parent="0" />
      </root>
    </mxGraphModel>
  </diagram>
</mxfile>
